<svg xmlns="http://www.w3.org/2000/svg" width="48" height="48" fill="none">
  <path fill="url(#a)" d="M46.4497 23.7249a22.7255 22.7255 0 0 1-6.6559 16.0689 22.7244 22.7244 0 0 1-16.069 6.6559 22.7249 22.7249 0 1 1 22.7249-22.7248Z"/>
  <path fill="url(#b)" d="M44.6686 23.7249a20.9441 20.9441 0 1 1-41.8883.0001 20.9441 20.9441 0 0 1 41.8883-.0001Z"/>
  <path fill="#F4F2F3" fill-rule="evenodd" d="M23.42 4.1784a.3046.3046 0 0 1 .3053-.3053.3047.3047 0 0 1 .3054.3053v3.5222a.3047.3047 0 0 1-.3054.3053.3046.3046 0 0 1-.3053-.3053V4.1784Zm-1.7544-.1788a.2799.2799 0 0 1 .0621-.0003h-.0001a.3048.3048 0 0 1 .2735.2723l.1538 1.4735a.3046.3046 0 0 1-.272.3354.3046.3046 0 0 1-.3354-.272l-.1539-1.4736a.3046.3046 0 0 1 .272-.3353Zm4.0713.0012a.3047.3047 0 0 0-.2736.272l-.1549 1.4735a.3048.3048 0 0 0 .2718.3357.3046.3046 0 0 0 .3356-.2718l.155-1.4735a.3047.3047 0 0 0-.2719-.3356.3239.3239 0 0 0-.062-.0003Zm-6.123.3026a.3111.3111 0 0 1 .0617-.0065v-.0002a.3045.3045 0 0 1 .3003.2422l.7295 3.4459a.3046.3046 0 0 1-.2355.3619.3047.3047 0 0 1-.362-.2355l-.7295-3.4458a.3048.3048 0 0 1 .2355-.362Zm8.175-.0036a.3043.3043 0 0 0-.3005.242l-.732 3.4453a.3048.3048 0 0 0 .2353.3621.3046.3046 0 0 0 .3621-.2352l.732-3.4454a.3047.3047 0 0 0-.2969-.3686v-.0002Zm-10.1923.5633a.3046.3046 0 0 1 .3847.196l.4578 1.4091a.3046.3046 0 0 1-.1959.3848.3047.3047 0 0 1-.3848-.196l-.4579-1.4092a.3046.3046 0 0 1 .1961-.3846Zm12.1396-.0133a.3046.3046 0 0 0-.2641.21l-.4581 1.409a.3047.3047 0 0 0 .196.3848.3047.3047 0 0 0 .3848-.196l.4581-1.409a.3047.3047 0 0 0-.196-.3848.3068.3068 0 0 0-.1207-.014Zm-14.0741.7346a.3044.3044 0 0 1 .403.155l1.4307 3.2185a.3047.3047 0 0 1-.1551.403.3046.3046 0 0 1-.403-.155l-1.4306-3.2185a.3047.3047 0 0 1 .155-.403Zm16.0326-.0158a.3053.3053 0 0 0-.2848.1812L29.975 8.9664a.3047.3047 0 0 0 .1545.4032c.1545.069.3343 0 .4032-.1544l1.435-3.2166a.3047.3047 0 0 0-.1545-.4033.307.307 0 0 0-.1185-.0267Zm-17.8857.9808a.3047.3047 0 0 1 .4171.1118l.7408 1.283a.3046.3046 0 0 1-.1117.4171.3047.3047 0 0 1-.4172-.1117l-.7408-1.2831a.3048.3048 0 0 1 .1118-.4171Zm19.6587-.0405a.304.304 0 0 0-.2431.1522l-.7409 1.283a.3047.3047 0 0 0 .1119.4172.3047.3047 0 0 0 .4171-.1117l.7408-1.2831a.3047.3047 0 0 0-.1117-.4172.3053.3053 0 0 0-.1741-.0404Zm-21.3992 1.147a.3045.3045 0 0 1 .4264.068l2.0683 2.8508a.3047.3047 0 0 1-.0678.4265.3049.3049 0 0 1-.4266-.0679l-2.0682-2.851a.3048.3048 0 0 1 .0679-.4265Zm23.1666-.0428a.3042.3042 0 0 0-.2577.1257l-2.0721 2.8483a.3047.3047 0 0 0 .0674.4266.3047.3047 0 0 0 .4265-.0672l2.072-2.8482a.3047.3047 0 0 0-.0673-.4266.305.305 0 0 0-.1688-.0586ZM10.4568 8.9844a.3046.3046 0 0 1 .4314.0226l.9912 1.1011a.3047.3047 0 0 1-.0227.4313.3045.3045 0 0 1-.4312-.0226l-.9913-1.1012a.3047.3047 0 0 1 .0226-.4312Zm26.3189-.0761a.3056.3056 0 0 0-.211.101l-.9913 1.1009a.3048.3048 0 0 0 .0225.4313.3048.3048 0 0 0 .4313-.0226l.9914-1.101a.3048.3048 0 0 0-.0226-.4313.3043.3043 0 0 0-.2202-.0783h-.0001ZM8.9709 10.4435a.3055.3055 0 0 1 .2109-.101v.0001a.3048.3048 0 0 1 .2203.0782l2.6178 2.3565a.3047.3047 0 0 1 .0226.4313.3046.3046 0 0 1-.4312.0226l-2.6177-2.3565a.3047.3047 0 0 1-.0227-.4312Zm29.3074-.0907a.3037.3037 0 0 0-.2204.0782l-2.6193 2.3546a.3048.3048 0 0 0-.0231.4313.3048.3048 0 0 0 .4313.0229l2.6195-2.3547a.3047.3047 0 0 0 .0229-.4312.3048.3048 0 0 0-.2109-.1011ZM7.6806 12.0675a.305.305 0 0 1 .4266-.0676l1.1986.8709a.3048.3048 0 0 1 .0675.4266.3046.3046 0 0 1-.4265.0675l-1.1986-.8709a.3046.3046 0 0 1-.0676-.4265Zm31.8401-.1149a.3056.3056 0 0 0-.1689.0583l-1.1992.8701a.3049.3049 0 0 0-.0679.4266.3048.3048 0 0 0 .4265.0677l1.1993-.87a.3047.3047 0 0 0 .0677-.4265.3043.3043 0 0 0-.2575-.1261v-.0001ZM6.5331 13.7994a.3036.3036 0 0 1 .243-.1522v-.0001a.3056.3056 0 0 1 .174.0405l3.0504 1.7611a.3046.3046 0 0 1 .1117.4171.3047.3047 0 0 1-.4171.1118l-3.0503-1.7611a.3047.3047 0 0 1-.1117-.4171Zm34.1414-.1522a.3019.3019 0 0 0-.1741.0405l-3.0502 1.7611a.3046.3046 0 0 0-.1118.4171.3046.3046 0 0 0 .4171.1117l3.0504-1.7611a.3046.3046 0 0 0 .1118-.4171.305.305 0 0 0-.2432-.1522ZM5.6127 15.6463a.304.304 0 0 1 .2848-.1811.3057.3057 0 0 1 .1185.0266l1.353.6036a.3048.3048 0 0 1 .1546.4033.3046.3046 0 0 1-.4033.1544l-1.3532-.6036a.3046.3046 0 0 1-.1544-.4032Zm35.9464-.1685a.3044.3044 0 0 0-.1186.0266l-1.3535.6025a.3049.3049 0 0 0-.1549.4032.305.305 0 0 0 .4033.1548l1.3535-.6027a.3046.3046 0 0 0 .1547-.4031.3044.3044 0 0 0-.2845-.1813Zm-36.709 2.0974a.3043.3043 0 0 1 .385-.1957l3.3489 1.0912a.3046.3046 0 0 1 .1957.3849.3047.3047 0 0 1-.385.1957l-3.3489-1.0912a.3046.3046 0 0 1-.1956-.3849Zm37.4906-.1968a.2974.2974 0 0 0-.1206.0141l-3.3496 1.0888a.3048.3048 0 0 0-.196.3849.3047.3047 0 0 0 .3848.1959l3.3496-1.0888a.3048.3048 0 0 0 .1961-.3848.305.305 0 0 0-.2643-.2101ZM4.3259 19.6021a.3047.3047 0 0 1 .3006-.2421v.0003a.297.297 0 0 1 .0617.0066l1.4491.3079a.3047.3047 0 0 1 .2353.3622.3046.3046 0 0 1-.3622.2352l-1.4493-.3079a.3048.3048 0 0 1-.2352-.3622Zm38.4989-.2392a.3824.3824 0 0 0-.0615.0065l-1.4493.3079a.3046.3046 0 0 0-.2353.362.3049.3049 0 0 0 .3622.2354l1.4491-.3079a.3047.3047 0 0 0 .2354-.3621.3047.3047 0 0 0-.3006-.2421v.0003ZM3.9835 21.6382a.3045.3045 0 0 1 .3357-.2716l3.5027.3704a.3046.3046 0 0 1 .2716.3357.3048.3048 0 0 1-.3358.2717L4.255 21.974a.3046.3046 0 0 1-.2715-.3358Zm39.2132-.2455a.2804.2804 0 0 0-.0621.0002l-3.5031.3656a.3048.3048 0 0 0-.272.3354.3046.3046 0 0 0 .3354.272l3.5031-.3655a.3048.3048 0 0 0 .272-.3354.3045.3045 0 0 0-.2733-.2723ZM3.8926 23.7255a.3047.3047 0 0 1 .3053-.3054h1.4816a.3048.3048 0 0 1 .3055.3054.3047.3047 0 0 1-.3055.3053H4.1979a.3046.3046 0 0 1-.3053-.3053Zm37.8785-.3054a.3047.3047 0 0 0-.3053.3054c0 .1692.1362.3053.3053.3053h1.4816a.3046.3046 0 0 0 .3054-.3053.3047.3047 0 0 0-.3054-.3054h-1.4816ZM7.7558 25.085a.3046.3046 0 0 1 .3354.272.3046.3046 0 0 1-.272.3354l-3.5032.3656a.3046.3046 0 0 1-.3354-.272.3046.3046 0 0 1 .272-.3354l3.5032-.3656Zm31.8752.0214a.3045.3045 0 0 0-.2737.2719.3046.3046 0 0 0 .2715.3358l3.5027.3703a.3048.3048 0 0 0 .3358-.2716.3047.3047 0 0 0-.2717-.3358l-3.5025-.3704a.3223.3223 0 0 0-.0621-.0002ZM6.01 27.1758a.303.303 0 0 1 .0616-.0065v-.0002a.3047.3047 0 0 1 .3004.2421.3047.3047 0 0 1-.2352.3621l-1.4493.3077a.3047.3047 0 0 1-.3621-.2352.3048.3048 0 0 1 .2352-.3622l1.4493-.3078Zm35.3687-.0036a.3042.3042 0 0 0-.3005.2419.3046.3046 0 0 0 .2351.3622l1.4493.308a.3045.3045 0 0 0 .3621-.2351.3048.3048 0 0 0-.2352-.3623l-1.4492-.308a.2952.2952 0 0 0-.0616-.0065v-.0002ZM8.3914 28.3889a.2954.2954 0 0 1 .1206-.014v-.0001a.3048.3048 0 0 1 .2643.2101.3047.3047 0 0 1-.1961.3848l-3.3496 1.0889a.3047.3047 0 0 1-.3848-.196.3047.3047 0 0 1 .196-.3848l3.3496-1.0889Zm30.5439-.0032a.3043.3043 0 0 0-.2642.2098.3046.3046 0 0 0 .1957.3849l3.3489 1.0913a.3047.3047 0 0 0 .3849-.1958.3045.3045 0 0 0-.1957-.3849l-3.3489-1.0912a.3046.3046 0 0 0-.1207-.0141Zm-31.82 2.4005a.3046.3046 0 0 1 .4032.1548.3047.3047 0 0 1-.1547.4032l-1.3537.6025a.3046.3046 0 0 1-.4031-.1547.3046.3046 0 0 1 .1547-.4031l1.3536-.6027Zm33.0966-.0149a.304.304 0 0 0-.2848.1811.3047.3047 0 0 0 .1545.4033l1.3531.6036a.3047.3047 0 0 0 .4033-.1545.3048.3048 0 0 0-.1545-.4033l-1.3531-.6036a.3057.3057 0 0 0-.1185-.0266Zm-30.5168.7022a.3026.3026 0 0 1 .174-.0405v.0001a.3044.3044 0 0 1 .2431.1522.3047.3047 0 0 1-.1117.4172l-3.0503 1.761a.3047.3047 0 0 1-.4171-.1118.3047.3047 0 0 1 .1117-.4171l3.0503-1.7611Zm27.8865-.0405a.3043.3043 0 0 0-.2432.1523.3048.3048 0 0 0 .1118.4172l3.0502 1.761a.305.305 0 0 0 .4173-.1118.3047.3047 0 0 0-.1118-.4171l-3.0504-1.7611a.305.305 0 0 0-.1739-.0405ZM8.9394 34.0758a.3049.3049 0 0 1 .4266.0678.3047.3047 0 0 1-.0679.4265l-1.1992.8701a.3046.3046 0 0 1-.4265-.0679.3046.3046 0 0 1 .0679-.4264l1.1991-.8701Zm29.3956-.0481a.3041.3041 0 0 0-.2576.126.3047.3047 0 0 0 .0676.4266l1.1986.8709a.3047.3047 0 0 0 .4265-.0677.3046.3046 0 0 0-.0675-.4264l-1.1986-.8709a.305.305 0 0 0-.169-.0585Zm-26.7311.1836a.3046.3046 0 0 1 .4312.0229.3047.3047 0 0 1-.0229.4312l-2.6194 2.3547a.3047.3047 0 0 1-.4312-.0229.3046.3046 0 0 1 .0229-.4312l2.6194-2.3547Zm24.0152-.0697a.3054.3054 0 0 0-.211.1009.3046.3046 0 0 0 .0227.4312l2.6177 2.3565a.3048.3048 0 0 0 .4313-.0226.3046.3046 0 0 0-.0226-.4312l-2.6179-2.3565a.304.304 0 0 0-.2202-.0783Zm-21.5676 2.3627a.3047.3047 0 0 1 .4266-.0673.3047.3047 0 0 1 .0672.4266l-2.072 2.8482a.3047.3047 0 0 1-.4266.0673.3047.3047 0 0 1-.0672-.4266l2.072-2.8482Zm19.0728-.113a.3058.3058 0 0 0-.1689.0583.3047.3047 0 0 0-.0679.4264l2.0681 2.851a.3047.3047 0 0 0 .4265.0679.3046.3046 0 0 0 .0679-.4264l-2.0681-2.851a.3048.3048 0 0 0-.2576-.1262Zm-21.7008.5409a.3043.3043 0 0 1 .4313-.0227.3048.3048 0 0 1 .0226.4313l-.9915 1.101a.3046.3046 0 0 1-.4312.0227.3049.3049 0 0 1-.0225-.4314l.9913-1.1009Zm24.3908-.0995a.3028.3028 0 0 0-.2202.0783.3045.3045 0 0 0-.0227.4312l.9912 1.1012a.3046.3046 0 0 0 .4312.0226.3048.3048 0 0 0 .0226-.4313l-.9912-1.1011a.3045.3045 0 0 0-.211-.101l.0001.0001ZM16.918 38.2352a.3038.3038 0 0 1 .2847-.1811.3044.3044 0 0 1 .1186.0266.3047.3047 0 0 1 .1545.4033l-1.4351 3.2166a.3047.3047 0 0 1-.4032.1544.3047.3047 0 0 1-.1545-.4033l1.435-3.2165Zm13.3106-.1723a.306.306 0 0 0-.1186.0265.3047.3047 0 0 0-.155.403l1.4305 3.2186a.305.305 0 0 0 .4032.155.3048.3048 0 0 0 .155-.4031l-1.4306-3.2185a.3048.3048 0 0 0-.2845-.1815ZM14.438 39.2008a.305.305 0 0 1 .4172-.1118.3046.3046 0 0 1 .1117.4171l-.7408 1.2831a.3047.3047 0 0 1-.4171.1118.3047.3047 0 0 1-.1118-.4171l.7408-1.2831Zm18.3316-.1522a.3024.3024 0 0 0-.174.0405.3046.3046 0 0 0-.1117.4171l.7407 1.2831a.3047.3047 0 0 0 .4172.1117.3046.3046 0 0 0 .1117-.4171l-.7408-1.2831a.3048.3048 0 0 0-.2431-.1522Zm-12.6727.2879a.3042.3042 0 0 1 .3005-.2419v.0002a.3048.3048 0 0 1 .2969.3687l-.7319 3.4453a.3047.3047 0 0 1-.3622.2352.3045.3045 0 0 1-.2352-.3621l.7319-3.4454Zm6.9455-.2397a.3046.3046 0 0 0-.297.3684l.7295 3.4458a.3048.3048 0 0 0 .362.2356.3049.3049 0 0 0 .2355-.3621l-.7296-3.4456a.3047.3047 0 0 0-.3003-.2422l-.0001.0001Zm-3.6224.6528a.3046.3046 0 0 1 .3053-.3053.3047.3047 0 0 1 .3054.3053v3.5222a.3047.3047 0 0 1-.3054.3054.3046.3046 0 0 1-.3053-.3054v-3.5222Zm-5.2999.8328a.3048.3048 0 0 0-.2642.2101l-.458 1.4091a.3047.3047 0 0 0 .196.3848.3048.3048 0 0 0 .3848-.1961l.4579-1.409a.3047.3047 0 0 0-.1959-.3848.3062.3062 0 0 0-.1206-.0141Zm11.0875.0147a.2987.2987 0 0 1 .1206-.014v.0001a.3045.3045 0 0 1 .2641.21l.458 1.4091a.3048.3048 0 0 1-.1961.3847.3048.3048 0 0 1-.3849-.196l-.4578-1.409a.3048.3048 0 0 1 .1961-.3849Zm-7.399.7708a.3047.3047 0 0 0-.2737.272l-.1549 1.4736a.3046.3046 0 0 0 .2718.3355.3047.3047 0 0 0 .3356-.2717l.1549-1.4734a.3047.3047 0 0 0-.2718-.3357.3126.3126 0 0 0-.0619-.0003Zm3.7591.0017a.3045.3045 0 0 1 .3355.2721l.1538 1.4735a.3047.3047 0 0 1-.272.3354.3047.3047 0 0 1-.3354-.2719l-.1539-1.4737a.3047.3047 0 0 1 .272-.3354Z" clip-rule="evenodd"/>
  <path fill="#000" d="m38.0374 11.511-16.7067 9.7066L10.7676 37.847l15.453-11.4459L38.0374 11.511Z" opacity=".409"/>
  <path fill="#FF5150" d="m26.1193 26.2323-4.7887-5.0148L38.3178 9.7902 26.1193 26.2323Z"/>
  <path fill="#F1F1F1" d="m26.119 26.2322-4.7887-5.0148L9.1318 37.6595 26.119 26.2322Z"/>
  <path fill="#000" d="M9.1318 37.6597 26.119 26.2324 38.3176 9.7903 9.1318 37.6597Z" opacity=".243"/>
  <defs>
    <radialGradient id="b" cx="0" cy="0" r="1" gradientTransform="translate(23.8198 20.6713) scale(22.725)" gradientUnits="userSpaceOnUse">
      <stop stop-color="#06C2E7"/>
      <stop offset=".25" stop-color="#0DB8EC"/>
      <stop offset=".5" stop-color="#12AEF1"/>
      <stop offset=".75" stop-color="#1F86F9"/>
      <stop offset="1" stop-color="#107DDD"/>
    </radialGradient>
    <linearGradient id="a" x1="46.4497" x2="46.4497" y1="46.4497" y2="1" gradientUnits="userSpaceOnUse">
      <stop stop-color="#BDBDBD"/>
      <stop offset="1" stop-color="#fff"/>
    </linearGradient>
  </defs>
</svg>
